HIERARCHY
ROOT Hips
{
	OFFSET 0.000000 8.830580 0.000000
	CHANNELS 6 Xposition Yposition Zposition Zrotation Yrotation Xrotation 
	JOINT Spine
	{
		OFFSET 0.000000 0.010000 0.000000
		CHANNELS 3 Zrotation Yrotation Xrotation
		JOINT Spine1
		{
			OFFSET 0.000000 2.459130 0.000000
			CHANNELS 3 Zrotation Yrotation Xrotation
			JOINT Neck
			{
				OFFSET 0.000000 2.484630 0.000000
				CHANNELS 3 Zrotation Yrotation Xrotation
				JOINT Head_virtual
				{
					OFFSET 0.000000 0.000000 0.000000
					CHANNELS 3 Zrotation Yrotation Xrotation
					JOINT Head
					{
						OFFSET 0.000000 0.927525 0.000000
						CHANNELS 3 Zrotation Yrotation Xrotation
						End Site
						{
							OFFSET 0.000000 0.000000 0.000000
						}
					}
				}
				JOINT LeftUpArm_virtual
				{
					OFFSET 0.000000 0.000000 0.000000
					CHANNELS 3 Zrotation Yrotation Xrotation
					JOINT LeftUpArm
					{
						OFFSET 1.248820 0.000000 0.000000
						CHANNELS 3 Zrotation Yrotation Xrotation
						JOINT LeftForeArm
						{
							OFFSET 2.597580 0.000000 0.000000
							CHANNELS 3 Zrotation Yrotation Xrotation
							JOINT LeftHand
							{
								OFFSET 2.455420 0.000000 0.000000
								CHANNELS 3 Zrotation Yrotation Xrotation
								End Site
								{
									OFFSET 0.000000 0.000000 0.000000
								}
							}
						}
					}
				}
				JOINT RightUpArm_virtual
				{
					OFFSET -0.000000 -0.000000 -0.000000
					CHANNELS 3 Zrotation Yrotation Xrotation
					JOINT RightUpArm
					{
						OFFSET -1.248820 -0.000000 -0.000000
						CHANNELS 3 Zrotation Yrotation Xrotation
						JOINT RightForeArm
						{
							OFFSET -2.597580 -0.000000 -0.000000
							CHANNELS 3 Zrotation Yrotation Xrotation
							JOINT RightHand
							{
								OFFSET -2.455420 -0.000000 -0.000000
								CHANNELS 3 Zrotation Yrotation Xrotation
								End Site
								{
									OFFSET 0.000000 0.000000 0.000000
								}
							}
						}
					}
				}
			}
		}
	}
	JOINT LeftUpLeg
	{
		OFFSET 1.271939 0.000000 0.000000
		CHANNELS 3 Zrotation Yrotation Xrotation
		JOINT LeftLowLeg
		{
			OFFSET 0.000000 -4.342910 0.000000
			CHANNELS 3 Zrotation Yrotation Xrotation
			JOINT LeftFoot
			{
				OFFSET 0.000000 -4.487670 0.000000
				CHANNELS 3 Zrotation Yrotation Xrotation
				JOINT LeftToeBase
				{
					OFFSET 0.000000 0.000000 1.515070
					CHANNELS 3 Zrotation Yrotation Xrotation
					End Site
					{
						OFFSET 0.000000 0.000000 0.000000
					}
				}
			}
		}
	}
	JOINT RightUpLeg
	{
		OFFSET -1.271939 0.000000 0.000000
		CHANNELS 3 Zrotation Yrotation Xrotation
		JOINT RightLowLeg
		{
			OFFSET 0.000000 -4.342910 0.000000
			CHANNELS 3 Zrotation Yrotation Xrotation
			JOINT RightFoot
			{
				OFFSET 0.000000 -4.487670 0.000000
				CHANNELS 3 Zrotation Yrotation Xrotation
				JOINT RightToeBase
				{
					OFFSET 0.000000 0.000000 1.515070
					CHANNELS 3 Zrotation Yrotation Xrotation
					End Site
					{
						OFFSET 0.000000 0.000000 0.000000
					}
				}
			}
		}
	}
}
MOTION
Frames: 10
Frame Time: 0.041667
-14.484873 8.914285 36.785389 178.487220 4.296363 -179.755007 3.275827 1.759309 -22.200921 -5.814919 2.539353 21.875688 0.000000 0.000000 0.000000 6.386141 2.950719 14.700772 -12.444941 -8.725840 -85.844931 -26.104500 3.153590 8.127014 -47.143700 -8.137240 13.158900 0.000000 -18.295099 0.000000 4.010460 16.603300 -10.457800 31.661600 -5.832020 -0.537994 46.931000 2.637210 8.475570 0.000000 22.001499 0.000000 3.214000 -7.160210 -15.040300 -4.016997 -9.500903 -2.003726 0.000000 0.000000 16.094299 -16.740351 13.025817 -6.897306 0.000000 0.000000 -20.318140 0.628281 16.266006 -3.274747 0.000000 0.000000 20.784401 32.416319 -5.325607 -13.487814 0.000000 0.000000 -15.812876 
-14.481861 8.914090 36.795562 178.442463 4.294749 -179.733884 3.273531 1.793931 -22.146528 -5.871913 2.511088 21.668958 0.000000 0.000000 0.000000 6.430049 3.036639 14.842585 -12.351656 -8.591844 -85.678825 -26.148600 3.089730 8.165009 -46.722900 -8.137370 14.534300 0.000000 -18.702499 0.000000 4.887840 16.285000 -8.874610 31.702101 -5.946640 -0.019989 46.788799 3.298850 9.270790 0.000000 21.475599 0.000000 3.467280 -7.222370 -14.963000 -4.023358 -9.525082 -2.029228 0.000000 0.000000 15.963100 -16.776698 13.045279 -6.837677 0.000000 0.000000 -20.322080 0.575834 16.089863 -3.332280 0.000000 0.000000 20.705099 32.411239 -5.206951 -13.452850 0.000000 0.000000 -15.785268 
-14.479472 8.913897 36.806537 178.414014 4.227297 -179.562015 3.259148 1.812889 -22.225217 -5.890902 2.510617 21.501664 0.000000 0.000000 0.000000 6.452662 3.185188 14.747038 -12.157468 -8.400903 -85.480834 -26.195101 2.991240 8.213013 -46.365601 -8.208450 15.497100 0.000000 -18.966400 0.000000 5.747230 15.916400 -6.841550 31.769899 -5.912240 0.101990 46.603100 3.447450 10.400200 0.000000 21.078800 0.000000 3.769770 -7.650000 -14.341000 -3.986005 -9.583254 -2.234387 0.000000 0.000000 15.864600 -16.785298 13.030449 -6.770421 0.000000 0.000000 -20.307710 0.532862 16.346850 -3.579976 0.000000 0.000000 20.751600 32.459247 -5.454765 -13.609206 0.000000 0.000000 -15.764733 
-14.477823 8.913706 36.818255 178.388894 4.137094 -179.346150 3.234251 1.851707 -22.269652 -5.913018 2.518039 21.249812 0.000000 0.000000 0.000000 6.476597 3.486969 14.666893 -11.891363 -8.145145 -85.429714 -26.233801 2.845140 8.088989 -46.147900 -8.114400 15.826900 0.000000 -19.077801 0.000000 6.271010 15.444100 -5.438870 31.853201 -5.862320 0.083008 46.434399 3.425590 11.556000 0.000000 20.660601 0.000000 4.100840 -7.875080 -14.333900 -3.933673 -9.574786 -2.489035 0.000000 0.000000 15.756000 -16.750056 12.957401 -6.662590 0.000000 0.000000 -20.345660 0.462424 16.449074 -3.857516 0.000000 0.000000 20.747400 32.507043 -5.602430 -13.710160 0.000000 0.000000 -15.743325 
-14.477324 8.913550 36.830301 178.358610 4.035404 -179.117545 3.189844 1.834746 -22.309452 -5.913437 2.509782 21.008505 0.000000 0.000000 0.000000 6.451003 3.957962 14.462571 -11.648306 -7.785157 -85.364115 -26.268600 2.831970 8.059998 -46.082699 -8.190130 15.544400 0.000000 -19.064301 0.000000 6.733960 14.966300 -3.895590 31.881399 -5.705660 0.048004 46.294498 3.298580 12.835000 0.000000 20.295200 0.000000 4.358710 -8.134050 -13.258900 -3.896691 -9.651474 -2.758595 0.000000 0.000000 15.649100 -16.761885 12.930389 -6.587143 0.000000 0.000000 -20.325390 0.373837 16.555927 -4.157099 0.000000 0.000000 20.761801 32.578251 -5.734013 -13.808250 0.000000 0.000000 -15.774355 
-14.476392 8.913163 36.841717 178.304198 3.868602 -178.971196 3.089261 1.767179 -22.292773 -5.879190 2.533412 20.828302 0.000000 0.000000 0.000000 6.469656 4.481759 14.254563 -11.338077 -7.362144 -85.347796 -26.254299 2.857720 8.071991 -46.111000 -8.384810 15.169600 0.000000 -18.971800 0.000000 7.147260 14.674700 -2.230200 31.893600 -5.613930 0.020996 46.198601 3.167660 13.963700 0.000000 20.096600 0.000000 4.728400 -8.620970 -14.172000 -3.887045 -9.674150 -2.972833 0.000000 0.000000 15.583100 -16.747478 12.822658 -6.469706 0.000000 0.000000 -20.329550 0.313897 16.889962 -4.417067 0.000000 0.000000 20.926300 32.777740 -6.014054 -14.087723 0.000000 0.000000 -15.719028 
-14.475453 8.912814 36.855774 178.281399 3.710497 -178.872031 3.018301 1.752804 -22.180430 -5.867766 2.560365 20.672881 0.000000 0.000000 0.000000 6.501568 4.967291 13.927476 -11.014522 -6.938883 -85.334573 -26.203400 2.769310 7.834991 -46.234001 -8.327420 14.797900 0.000000 -18.886499 0.000000 7.324780 14.548600 -1.487770 31.944500 -5.522580 0.010010 46.113899 3.033620 14.729100 0.000000 19.948000 0.000000 5.116820 -8.885670 -14.700800 -3.847818 -9.675469 -3.210454 0.000000 0.000000 15.634200 -16.693848 12.703790 -6.373137 0.000000 0.000000 -20.364040 0.269905 16.903683 -4.640871 0.000000 0.000000 21.056000 32.931913 -6.054661 -14.186278 0.000000 0.000000 -15.720922 
-14.474964 8.913438 36.869649 178.313739 3.599046 -178.740741 3.023957 1.834002 -22.150448 -5.886618 2.603331 20.636768 0.000000 0.000000 0.000000 6.670260 5.196014 13.576921 -10.717039 -6.591035 -85.368690 -26.153400 2.690930 7.713013 -46.359299 -8.439090 14.345700 0.000000 -18.761400 0.000000 7.262450 14.638700 -1.245550 32.029800 -5.429780 0.239990 46.043201 3.202870 15.118100 0.000000 19.682400 0.000000 5.642700 -9.346090 -15.593400 -3.756472 -9.677644 -3.470832 0.000000 0.000000 15.688200 -16.693318 12.603254 -6.314345 0.000000 0.000000 -20.347680 0.218858 16.247861 -4.803806 0.000000 0.000000 20.908001 32.747930 -5.749855 -13.888367 0.000000 0.000000 -15.775832 
-14.476053 8.912481 36.887485 178.339076 3.159633 -178.645708 2.989329 1.667528 -22.010709 -5.861888 2.494496 20.558562 0.000000 0.000000 0.000000 6.806617 5.304870 13.247576 -10.455268 -6.366774 -85.409290 -26.148399 2.632730 7.606995 -46.539200 -8.616430 13.718100 0.000000 -18.548300 0.000000 6.936290 14.693200 -1.508480 32.095001 -5.238570 0.350006 45.987999 3.132000 15.001600 0.000000 19.629299 0.000000 5.894080 -9.662950 -17.377600 -3.668908 -10.053813 -3.851043 0.000000 0.000000 15.951600 -16.730982 12.497440 -6.301493 0.000000 0.000000 -20.362650 0.211902 15.757046 -4.976825 0.000000 0.000000 20.952400 32.641585 -5.775651 -13.854726 0.000000 0.000000 -15.851082 
-14.475908 8.911503 36.900470 178.290950 3.004795 -178.545772 2.906852 1.626708 -21.994025 -5.804170 2.565035 20.605082 0.000000 0.000000 0.000000 7.041652 5.217126 12.922938 -10.353442 -6.176423 -85.399253 -26.117201 2.568740 7.575012 -46.679798 -8.732000 13.500300 0.000000 -18.534401 0.000000 6.773700 14.823900 -2.143820 32.073002 -5.126390 0.483002 46.080898 3.119340 14.629500 0.000000 19.648701 0.000000 5.763660 -9.524510 -18.229000 -3.661902 -10.126841 -4.109276 0.000000 0.000000 16.062000 -16.782207 12.379681 -6.258686 0.000000 0.000000 -20.356520 0.154215 16.006334 -5.242252 0.000000 0.000000 21.182100 32.782923 -6.009206 -14.097553 0.000000 0.000000 -15.810642 
